<svg width="64" height="64" viewBox="0 0 64 64" fill="none" xmlns="http://www.w3.org/2000/svg">
<rect width="64" height="64" rx="6" fill="white"/>
<path d="M56.3185 27.0287C54.7756 25.143 52.5471 23.943 50.1471 23.4287C49.9756 21.543 49.1185 19.6573 47.5756 18.2858C45.3471 16.2287 41.9185 16.0573 39.5185 17.943C38.6613 16.4001 37.6328 14.8573 36.4328 13.6573C35.0613 12.2858 33.5185 11.2573 31.6328 10.5715C29.9185 9.88583 28.2042 9.54297 26.3185 9.54297C24.4328 9.54297 22.3756 9.88583 20.6613 10.743C15.6899 12.8001 12.4328 17.7715 12.2613 23.0858C12.2613 23.2573 12.2613 23.4287 12.2613 23.7715C7.97563 24.9715 5.23278 28.9144 5.4042 33.3715C5.4042 33.543 5.4042 33.8858 5.4042 34.0573C5.91849 39.543 10.5471 43.6573 16.0328 43.4858H16.8899V40.9144H16.0328C11.9185 41.0858 8.31849 38.0001 7.97563 33.7144C7.97563 33.543 7.97563 33.3715 7.97563 33.2001C7.8042 29.6001 10.3756 26.343 13.9756 25.8287C14.6613 25.6573 15.0042 25.143 15.0042 24.4573C15.0042 23.943 15.0042 23.6001 15.0042 23.0858C15.1756 18.6287 17.7471 14.6858 21.8613 12.8001C23.4042 12.1144 24.9471 11.7715 26.6613 11.7715C29.7471 11.7715 32.6613 13.143 34.8899 15.2001C36.2613 16.5715 37.4613 18.4573 38.1471 20.343C38.3185 20.8573 38.6613 21.0287 39.1756 21.2001H39.3471C39.6899 21.2001 40.0328 21.0287 40.3756 20.6858C41.0613 19.6573 42.4328 18.9715 43.6328 18.9715C45.5185 18.9715 47.7471 20.343 48.0899 24.2858C48.0899 24.8001 48.6042 25.3144 49.1185 25.4858C53.9185 26.5144 56.3185 29.0858 56.3185 33.2001C56.3185 40.0573 50.4899 40.743 48.0899 40.743V43.3144C53.2328 43.3144 58.8899 40.743 58.8899 33.2001C58.5471 31.143 57.8613 28.9144 56.3185 27.0287Z" fill="#DB0057"/>
<path d="M42.0899 36.9713H40.8899V31.9999C40.7185 29.9427 39.6899 27.8856 37.9756 26.6856C36.2613 25.3142 34.2042 24.457 31.9756 24.457C27.5185 24.457 23.2328 28.2285 23.2328 31.9999V36.9713H22.0328C21.347 36.9713 20.8328 37.4856 20.8328 38.1713V53.257C20.8328 53.9427 21.347 54.457 22.0328 54.457H42.2613C42.947 54.457 43.4613 53.9427 43.4613 53.257V38.1713C43.2899 37.4856 42.7756 36.9713 42.0899 36.9713ZM25.6328 31.8285C25.6328 29.4285 28.8899 26.857 31.9756 26.857C33.5185 26.857 35.0613 27.5427 36.2613 28.5713C37.2899 29.4285 38.1471 30.6285 38.1471 31.9999V36.9713H25.4613L25.6328 31.8285ZM40.7185 41.9427H38.1471V44.5142H40.7185V47.0856H38.1471V49.657H40.7185V52.2285H23.2328V39.5427H40.8899V41.9427H40.7185Z" fill="#DB0057"/>
<path d="M30.7756 47.2567V50.8567H33.3471V47.2567C34.2042 46.9138 35.0614 46.2281 35.4042 45.1995C36.0899 43.4852 35.2328 41.4281 33.3471 40.7424C31.6328 40.0567 29.5756 40.9138 28.8899 42.7995C28.0328 44.5138 28.8899 46.5709 30.7756 47.2567ZM31.9756 43.1424C32.4899 43.1424 33.0042 43.6567 33.0042 44.1709C33.0042 44.6852 32.4899 45.1995 31.9756 45.1995C31.4614 45.1995 30.9471 44.6852 30.9471 44.1709C30.9471 43.4852 31.4614 43.1424 31.9756 43.1424Z" fill="#DB0057"/>
</svg>
