<svg width="64" height="64" viewBox="0 0 64 64" fill="none" xmlns="http://www.w3.org/2000/svg">
<rect width="64" height="64" rx="6" fill="#D86613"/>
<path d="M52.1325 53.6667H41.6195C41.4586 53.6662 41.3012 53.6203 41.1653 53.5342C41.0294 53.4482 40.9206 53.3255 40.8515 53.1803L25.9864 22.0933H19.6973C19.471 22.0933 19.254 22.0034 19.0939 21.8434C18.9339 21.6834 18.844 21.4663 18.844 21.24V11.8533C18.844 11.627 18.9339 11.41 19.0939 11.2499C19.254 11.0899 19.471 11 19.6973 11H32.8387C32.9995 11.0005 33.1569 11.0464 33.2928 11.1324C33.4287 11.2185 33.5375 11.3412 33.6067 11.4864L48.4035 42.5733H52.1325C52.3588 42.5733 52.5759 42.6632 52.7359 42.8233C52.896 42.9833 52.9859 43.2003 52.9859 43.4267V52.8133C52.9859 53.0396 52.896 53.2567 52.7359 53.4167C52.5759 53.5768 52.3588 53.6667 52.1325 53.6667ZM42.1571 51.96H51.2792V44.28H47.8659C47.705 44.2795 47.5476 44.2336 47.4117 44.1476C47.2758 44.0615 47.167 43.9388 47.0979 43.7936L32.3011 12.7067H20.5592V20.3867H26.5325C26.6934 20.3871 26.8508 20.433 26.9867 20.5191C27.1226 20.6051 27.2314 20.7279 27.3005 20.8731L42.1571 51.96Z" fill="white"/>
<path d="M23.9556 53.6676H12.8622C12.7172 53.6679 12.5745 53.6312 12.4476 53.561C12.3207 53.4909 12.2137 53.3895 12.1369 53.2665C12.0554 53.1406 12.0086 52.9954 12.0011 52.8456C11.9936 52.6958 12.0257 52.5466 12.0942 52.4132L23.6996 28.17C23.7687 28.0248 23.8775 27.9021 24.0134 27.816C24.1493 27.73 24.3067 27.6841 24.4676 27.6836V27.6836C24.6275 27.6833 24.7843 27.7279 24.9201 27.8124C25.0559 27.8969 25.1652 28.0178 25.2356 28.1615L30.7908 39.5876C30.8467 39.7034 30.8757 39.8302 30.8757 39.9588C30.8757 40.0874 30.8467 40.2142 30.7908 40.33L24.7321 53.13C24.67 53.2861 24.5631 53.4204 24.425 53.516C24.2868 53.6117 24.1235 53.6644 23.9556 53.6676ZM14.2276 51.9609H23.418L29.0756 40.0143L24.4761 30.4996L14.2276 51.9609Z" fill="white"/>
</svg>
