<svg width="64" height="64" viewBox="0 0 64 64" fill="none" xmlns="http://www.w3.org/2000/svg">
<path fill-rule="evenodd" clip-rule="evenodd" d="M53.335 11.7213C53.335 14.7122 43.8529 17.2046 32.1585 17.2046C20.4642 17.2046 10.9821 14.7524 10.9821 11.7213V9.24864L32.1585 6.25781L53.335 9.24864V11.7213ZM32.1585 21.5917L10.9821 52.2799V54.7526C10.9821 57.7435 20.4642 60.2359 32.1585 60.2359C43.8529 60.2359 53.335 57.783 53.335 54.7526V52.2799L32.1585 21.5917Z" fill="#19486F"/>
<path fill-rule="evenodd" clip-rule="evenodd" d="M10.9821 9.24892C10.9821 6.21151 20.4268 3.76562 32.1585 3.76562C43.8903 3.76562 53.335 6.21151 53.335 9.24892C53.335 12.2863 43.8903 14.7322 32.1585 14.7322C20.4268 14.7322 10.9821 12.287 10.9821 9.24892ZM32.1585 19.1193C20.4642 19.1193 10.9821 16.6663 10.9821 13.636V52.2802C10.9821 55.271 20.4642 57.7635 32.1585 57.7635C43.8529 57.7635 53.335 55.3106 53.335 52.2802V13.636C53.335 16.667 43.8529 19.1193 32.1585 19.1193Z" fill="#2E73B8"/>
<path fill-rule="evenodd" clip-rule="evenodd" d="M18.6198 26.0684H27.9367L32.1586 42.6982L36.3416 26.0684H45.7461V50.9938H39.7482V32.0507H39.6805L34.5755 50.9938H29.7233L24.6183 32.0507H24.5506V50.9938H18.6198V26.0684Z" fill="white"/>
</svg>
