<svg width="64" height="64" viewBox="0 0 64 64" fill="none" xmlns="http://www.w3.org/2000/svg">
<g clip-path="url(#clip0_1723_242453)">
<g clip-path="url(#clip1_1723_242453)">
<path d="M64 0H0V64H64V0Z" fill="url(#paint0_linear_1723_242453)"/>
<path d="M52.4202 34.1842C52.1728 32.8445 50.6538 31.8973 49.6128 31.2232C49.28 31.0098 48.3669 30.6685 48.2901 30.3698C48.2849 30.1561 48.3137 29.943 48.3754 29.7384L49.2288 23.6029C49.4762 21.8024 49.7152 20.0018 49.9626 18.2013C50.1845 16.5458 49.3909 15.4365 48.0426 14.5064C45.2949 12.6034 41.7109 11.8354 38.4768 11.3064C34.4209 10.6442 30.2963 10.5094 26.2058 10.9053C22.5268 11.1752 18.9159 12.0398 15.5136 13.4653C13.6874 14.3186 11.2981 15.6498 11.5968 17.9794C12.4501 24.9085 13.457 31.8205 14.3872 38.741C14.8138 41.9069 15.2405 45.0728 15.6672 48.2386C15.736 48.8551 15.9664 49.4425 16.335 49.9415C16.7036 50.4404 17.1973 50.8332 17.7664 51.0802C20.4117 52.5138 23.6885 52.9234 26.641 53.1965C30.5663 53.5511 34.5214 53.376 38.4 52.676C40.8576 52.2237 45.4314 51.4813 45.824 48.4093C46.3104 44.6034 46.848 40.7976 47.36 37.0002L47.5477 35.8397C48.9386 36.1725 52.9066 36.8808 52.4202 34.1842ZM30.7626 12.373C35.8826 12.373 41.745 12.9533 46.336 15.4792C47.0442 15.8717 48.6912 16.7506 48.1962 17.7917C47.7013 18.8328 46.1653 19.3533 45.2266 19.7288C43.8863 20.2239 42.5079 20.6091 41.105 20.8808C35.0137 22.0874 28.758 22.2174 22.6218 21.2648C19.8511 20.979 17.1558 20.1896 14.6688 18.9352C14.0544 18.5853 13.0389 17.9538 13.3205 17.1176C13.5436 16.6682 13.8937 16.2944 14.3274 16.0424C16.2018 14.837 18.2859 13.9946 20.4714 13.5592C23.8414 12.7502 27.2969 12.3519 30.7626 12.373V12.373ZM44.1429 48.341C44.0149 49.3394 42.368 49.8344 41.5829 50.116C39.953 50.6612 38.2718 51.0386 36.5653 51.2424C32.7789 51.7458 28.9426 51.7458 25.1562 51.2424C22.7847 51.0584 20.469 50.4302 18.3296 49.3906C18.0385 49.2641 17.7885 49.0589 17.6076 48.7982C17.4267 48.5374 17.3221 48.2313 17.3056 47.9144C16.4522 41.1474 15.4794 34.3805 14.5664 27.6136L13.5765 20.2749C15.5164 21.3457 17.622 22.0841 19.8058 22.4594C22.1448 22.9354 24.5144 23.2462 26.897 23.3896C31.5731 23.7246 36.2729 23.4637 40.8832 22.613C43.3397 22.2597 45.7127 21.4677 47.889 20.2749L46.08 33.6722C41.7557 32.2476 37.531 30.5371 33.4336 28.5522C33.2538 28.4836 33.0797 28.4009 32.913 28.3048C32.6826 28.1341 32.7424 28.2194 32.6314 27.9549C32.4181 27.4685 32.3669 27.1016 31.9146 26.7005C31.6705 26.5049 31.3822 26.372 31.075 26.3133C30.7677 26.2545 30.4508 26.2717 30.1517 26.3634C29.8526 26.4551 29.5804 26.6185 29.3589 26.8393C29.1373 27.0602 28.9731 27.3318 28.8805 27.6306C28.7879 27.9294 28.7696 28.2463 28.8274 28.5537C28.8852 28.8612 29.0172 29.1498 29.212 29.3946C29.4068 29.6394 29.6584 29.8329 29.945 29.9582C30.2316 30.0836 30.5445 30.137 30.8565 30.1138C31.1506 30.065 31.4374 29.979 31.7098 29.8578C32.0426 29.7554 32.0426 29.7725 32.3925 29.9346C36.5426 31.9583 40.818 33.7141 45.1925 35.1912C45.8496 35.4045 45.841 35.1912 45.841 35.7373C45.8133 36.1528 45.7592 36.566 45.6789 36.9746L45.1328 41.045L44.1429 48.341ZM30.976 28.1597C30.976 28.3901 30.6517 28.3645 30.5664 28.2194C30.481 28.0744 30.976 27.8354 30.976 28.1597ZM47.7866 34.133L48.0426 32.2472C48.896 32.7336 50.3466 33.4674 50.7306 34.4402C49.8944 34.7816 48.5717 34.3293 47.7866 34.133Z" fill="white"/>
</g>
</g>
<defs>
<linearGradient id="paint0_linear_1723_242453" x1="-13.2523" y1="77.2523" x2="77.2523" y2="-13.2523" gradientUnits="userSpaceOnUse">
<stop stop-color="#1B660F"/>
<stop offset="1" stop-color="#6CAE3E"/>
</linearGradient>
<clipPath id="clip0_1723_242453">
<rect width="64" height="64" rx="6" fill="white"/>
</clipPath>
<clipPath id="clip1_1723_242453">
<rect width="64" height="64" fill="white"/>
</clipPath>
</defs>
</svg>
